<svg aria-hidden="true" style="position: absolute; width: 0; height: 0; overflow: hidden;" version="1.1" xmlns="http://www.w3.org/2000/svg" xmlns:xlink="http://www.w3.org/1999/xlink">
<defs>
<symbol id="icon-search" viewBox="0 0 32 32">
<path d="M31.609 29.724l-7.959-7.959c1.878-2.283 3.016-5.235 3.016-8.453 0-7.376-5.979-13.355-13.355-13.355s-13.355 5.979-13.355 13.355c0 7.376 5.979 13.355 13.355 13.355 3.218 0 6.171-1.138 8.476-3.034l-0.023 0.018 7.959 7.959c0.24 0.232 0.566 0.374 0.926 0.374 0.736 0 1.333-0.597 1.333-1.333 0-0.36-0.143-0.687-0.375-0.927l0 0zM13.333 24c-5.891 0-10.667-4.776-10.667-10.667s4.776-10.667 10.667-10.667c5.891 0 10.667 4.776 10.667 10.667v0c-0.007 5.888-4.778 10.66-10.666 10.667h-0.001z"></path>
</symbol>
</defs>
</svg>
